<svg xmlns="http://www.w3.org/2000/svg" viewBox="0 0 566.93 226.77"><defs><style>.cls-1{fill:#d7b46a;}.cls-1,.cls-2{fill-rule:evenodd;}.cls-2{fill:#fff;}</style></defs><g id="Page_1" data-name="Page 1"><g id="Layer_1-2" data-name="Layer 1"><polygon class="cls-1" points="283.46 5.67 198.43 85.04 119.06 11.34 124.72 85.04 113.39 85.04 113.39 0 198.43 73.7 283.46 0 368.5 73.7 453.54 0 453.54 85.04 442.2 85.04 447.87 11.34 368.5 85.04 283.46 5.67 283.46 5.67"/><polygon class="cls-1" points="283.46 226.77 113.39 221.1 113.39 215.43 283.46 215.43 453.54 215.43 453.54 221.1 283.46 226.77 283.46 226.77"/><path class="cls-2" d="M326.24,311c.43.78,1.12,2,2.08,3.71s2.09,3.69,3.41,6l4.32,7.52,4.76,8.31q2.24,3.81,4.72,8l4.6,7.73q2.12,3.56,3.61,5.93c1,1.59,1.57,2.49,1.7,2.71.76,1.2,1.39,2.15,1.88,2.86s.9,1.25,1.21,1.64a6.12,6.12,0,0,0,.74.79.75.75,0,0,0,.45.21.27.27,0,0,0,.22-.15,2.45,2.45,0,0,0,.13-.85c0-.46,0-1.11.06-2s0-2,0-3.5l.13-52.75c0-1.34,0-2.47.07-3.39a14,14,0,0,1,.25-2.28,3.71,3.71,0,0,1,.58-1.43,2,2,0,0,1,1.08-.74,2.33,2.33,0,0,1,.83-.21h.51a.5.5,0,0,0,.48-.32,1.2,1.2,0,0,0,.16-.53c0-.42-.34-.64-1-.64-1.15,0-2.15,0-3,.11s-1.45.11-1.79.11-1.09,0-2.24-.11-2.36-.11-3.64-.11c-.72,0-1.08.22-1.08.64a3,3,0,0,0,.06.53.36.36,0,0,0,.38.32,10.29,10.29,0,0,1,1.15.1,11.32,11.32,0,0,1,1.6.32,2.69,2.69,0,0,1,1.66,2.23,35.39,35.39,0,0,1,.45,6.14l.57,45.13c-.42-.71-1.09-1.87-2-3.5L352.15,344q-1.83-3.18-3.9-6.84c-1.39-2.43-2.78-4.85-4.19-7.25q-3.26-5.5-6.32-10.81c-2-3.53-3.88-6.71-5.49-9.53l-4-7.05q-1.59-2.81-1.92-3.33c-.29-.5-.65-1.08-1.05-1.75s-.78-1-1.12-1-.39.3-.54.9a18.78,18.78,0,0,0-.22,3.66v51.59c0,2.05,0,3.76-.07,5.13s-.12,2.49-.22,3.34a6.39,6.39,0,0,1-.48,1.91,1.72,1.72,0,0,1-.83.85,4.55,4.55,0,0,1-1.31.42,7.42,7.42,0,0,1-1,.11c-.3,0-.45.24-.45.74s.3.74.9.74a33.66,33.66,0,0,0,3.48-.16c1-.11,1.69-.16,2-.16s.9,0,1.94.16a39.83,39.83,0,0,0,4,.16c.68,0,1-.25,1-.74s-.15-.74-.45-.74a11.16,11.16,0,0,1-1.21-.11,6.19,6.19,0,0,1-1.6-.42,2,2,0,0,1-1-.8,5.55,5.55,0,0,1-.64-1.8,24.14,24.14,0,0,1-.38-3.07c-.08-1.24-.15-2.77-.19-4.61L326.24,311Zm-34.44-8.79a28.44,28.44,0,0,0-.87-3.28c-.23-.64-.45-1-.67-1s-.36.23-.57.69a22.24,22.24,0,0,0-1,3.44L277,352.44h-.12c-.13-.63-.38-2-.74-4s-.79-4.51-1.28-7.37-1-5.89-1.59-9.11-1.11-6.28-1.6-9.21-.93-5.56-1.31-7.89-.66-4-.83-4.88c-.34-2-.61-3.81-.8-5.29a29.43,29.43,0,0,1-.29-3.08,2.82,2.82,0,0,1,.23-1.27,1.7,1.7,0,0,1,.54-.63,2,2,0,0,1,1.09-.48c.38,0,.68,0,.89,0a.51.51,0,0,0,.38-.21.93.93,0,0,0,.2-.64c0-.42-.35-.64-1-.64-1.4,0-2.67,0-3.8.11s-1.82.11-2.07.11-1.11,0-2.43-.11-2.73-.11-4.22-.11c-.59,0-.89.22-.89.64s.17.85.51.85a10.68,10.68,0,0,1,1.15.1,3.91,3.91,0,0,1,1.4.43,3.5,3.5,0,0,1,1,.74,4.85,4.85,0,0,1,.74,1.16,11.44,11.44,0,0,1,.64,1.91q.29,1.17.6,3l10,53.39c.3,1.55.55,2.79.77,3.7s.39,1.63.54,2.12a3,3,0,0,0,.45,1,.55.55,0,0,0,.41.26c.34,0,.64-.31.9-.95a37.34,37.34,0,0,0,1.08-3.81l1.44-6q.93-3.91,2-8.69t2.33-10q1.22-5.24,2.34-10t2-8.58c.6-2.54,1.06-4.48,1.4-5.83l11,49.26a26.69,26.69,0,0,0,1,3.66c.28.67.57,1,.87,1a.53.53,0,0,0,.44-.26,4.31,4.31,0,0,0,.45-1.11c.17-.57.37-1.35.61-2.33s.54-2.33.92-4,.84-3.83,1.38-6.41,1.1-5.4,1.72-8.47,1.27-6.29,1.95-9.64,1.34-6.61,2-9.75,1.24-6.09,1.79-8.84,1-5.09,1.47-7q.82-3.72,1.6-6.25a5.46,5.46,0,0,1,2-3.29,5.2,5.2,0,0,1,1.15-.32,7,7,0,0,1,.77-.1.4.4,0,0,0,.41-.32,2,2,0,0,0,.1-.64c0-.35-.26-.53-.77-.53s-.88,0-1.37.06-1,0-1.44,0-.8,0-1.12.05l-.6.06c-.26,0-.92,0-2-.11s-2.33-.11-3.77-.11c-.64,0-1,.22-1,.64a1.4,1.4,0,0,0,.13.53c.08.21.21.32.38.32,1.28,0,2.1.25,2.46.74a3.15,3.15,0,0,1,.54,1.91c0,.56,0,1.21-.09,2s-.25,2-.55,3.65l-1.21,6.83q-.7,4-1.53,8.32c-.56,2.89-1.12,5.86-1.7,8.9s-1.12,5.89-1.63,8.58-1,5.12-1.4,7.31-.75,3.88-1,5.08h-.26l-11-50.21Zm-70.15,26.91a60,60,0,0,1,1.21-12.82,31.47,31.47,0,0,1,3.36-9.16,15.46,15.46,0,0,1,5.11-5.51,12,12,0,0,1,6.48-1.86,11,11,0,0,1,6.36,2.12,18.54,18.54,0,0,1,5.36,6.25,37.69,37.69,0,0,1,3.71,10.33,66,66,0,0,1,1.37,14.25A60.48,60.48,0,0,1,253,348.47a29,29,0,0,1-4,9.27,12.64,12.64,0,0,1-5,4.39,10.77,10.77,0,0,1-11.56-1.27,20.09,20.09,0,0,1-5.62-6.83A40.23,40.23,0,0,1,223,343.28a68.48,68.48,0,0,1-1.34-14.14Zm-5.81,2.43a62.08,62.08,0,0,0,1.27,12.34,43.49,43.49,0,0,0,4,11.44,25.1,25.1,0,0,0,6.84,8.37,15.61,15.61,0,0,0,9.9,3.23A15.8,15.8,0,0,0,247,364a24.72,24.72,0,0,0,7.13-7.89,42.44,42.44,0,0,0,4.56-11.71,60.09,60.09,0,0,0,1.63-14.24,53.84,53.84,0,0,0-1.69-14.09A35.46,35.46,0,0,0,254,305.46a21.37,21.37,0,0,0-7.06-6.73,17.58,17.58,0,0,0-8.82-2.33,15.35,15.35,0,0,0-10,3.45,27.15,27.15,0,0,0-6.93,8.68,44.92,44.92,0,0,0-4,11.44,55.8,55.8,0,0,0-1.31,11.6Zm-27.05-29.13a1.41,1.41,0,0,1,.45-1.06,6.4,6.4,0,0,1,1.6-.37,18.55,18.55,0,0,1,2.42-.16c3,0,5.4,1.54,7.13,4.61s2.58,7.43,2.58,13.08a33.87,33.87,0,0,1-.95,8.69,12.31,12.31,0,0,1-2.43,5.08,3.87,3.87,0,0,1-2.11,1.38,11.09,11.09,0,0,1-2.11.21,17.64,17.64,0,0,1-1.92-.1,14.68,14.68,0,0,1-1.82-.32q-.85-.21-1.5-.42a2.69,2.69,0,0,1-1-.53,1.73,1.73,0,0,1-.38-1.17V302.44Zm-4.85,37.18c0,4.38,0,8.27,0,11.66s-.11,6-.28,7.83c-.13,1.35-.27,2.42-.42,3.24a1.82,1.82,0,0,1-1,1.53,3.33,3.33,0,0,1-.87.32,4,4,0,0,1-.86.11c-.3,0-.45.24-.45.74s.3.74.9.74c.42,0,1,0,1.6-.05l1.82-.11,1.5-.11.64,0,.73,0c.45,0,1,.07,1.66.11l2.17.11c.79,0,1.57.05,2.34.05.59,0,.89-.25.89-.74s-.15-.74-.45-.74a9.8,9.8,0,0,1-1.15-.11,6.59,6.59,0,0,1-1.34-.32,2.25,2.25,0,0,1-1.69-1.53,12.54,12.54,0,0,1-.54-3.24c-.13-1.83-.21-4.43-.23-7.78s0-7.22,0-11.6v-2.12c0-.49.13-.74.38-.74l7.16.21a.93.93,0,0,1,.77.53c.29.64.67,1.45,1.11,2.44l1.47,3.23c.54,1.16,1.1,2.4,1.7,3.71s1.19,2.56,1.79,3.76q2.42,5.08,4.12,8.36a16.06,16.06,0,0,0,3.54,4.88,7,7,0,0,0,2.33,1.37,11.85,11.85,0,0,0,3.68.43h3.51a2.32,2.32,0,0,0,1.05-.16.6.6,0,0,0,.29-.58c0-.5-.17-.74-.51-.74a5.61,5.61,0,0,1-.7-.06,9.58,9.58,0,0,1-1.28-.26,6.55,6.55,0,0,1-2.56-1.33,18.23,18.23,0,0,1-3.7-4.92q-2.43-4.25-5.37-10.17t-6.39-13.14a36.54,36.54,0,0,0,5.4-10.54,34.87,34.87,0,0,0,1.5-10,20.56,20.56,0,0,0-.41-4.29,25,25,0,0,0-1-3.55,17.13,17.13,0,0,0-1.28-2.7,17.87,17.87,0,0,0-1.18-1.75,9.83,9.83,0,0,0-5-3.23,22.57,22.57,0,0,0-5.46-.69c-.43,0-1,0-1.76.06s-1.48,0-2.2,0-1.39,0-2,.05l-1.09.06-.83-.06c-.47,0-1-.05-1.66-.05s-1.33,0-2.08,0-1.43-.06-2.07-.06-.9.25-.9.75.15.74.45.74.59,0,1,0a4.72,4.72,0,0,1,.93.16,2.24,2.24,0,0,1,1.79,1.48,15.15,15.15,0,0,1,.51,3.5c0,.71.07,1.46.09,2.28s0,1.92,0,3.33v29.66ZM162.84,367a38.18,38.18,0,0,0,5.59-.42,10.92,10.92,0,0,0,4.57-1.59,3.24,3.24,0,0,0,.93-.95,7.27,7.27,0,0,0,.48-1.7c.12-.77.27-1.78.44-3s.32-2.45.45-3.65.24-2.28.32-3.23.13-1.5.13-1.64a2.34,2.34,0,0,0-.16-.9c-.11-.25-.23-.38-.35-.38a.35.35,0,0,0-.39.27c0,.18-.1.51-.19,1a29.28,29.28,0,0,1-.7,3.65,13.62,13.62,0,0,1-1.47,3.87,7.5,7.5,0,0,1-3.87,3.49,16.82,16.82,0,0,1-5.39.74,13.86,13.86,0,0,1-8.24-2.64,23.32,23.32,0,0,1-6.39-7.15,38.28,38.28,0,0,1-4.16-10.44A51.27,51.27,0,0,1,143,329.88a80.43,80.43,0,0,1,1-12.82,27.15,27.15,0,0,1,4.09-10.7,16.38,16.38,0,0,1,1.82-2.28,12.25,12.25,0,0,1,2.56-2,13.29,13.29,0,0,1,3.54-1.43,19.14,19.14,0,0,1,4.73-.53,15,15,0,0,1,6.68,1.43,11.12,11.12,0,0,1,4.37,3.55,11.6,11.6,0,0,1,1.73,3.92,20.2,20.2,0,0,1,.64,5.08c0,1.28.15,1.91.44,1.91s.6-.63.64-1.91q0-.42,0-1.53c0-.74,0-1.54,0-2.38s0-1.84,0-2.76,0-1.76,0-2.54c.09-1.63.15-2.79.19-3.5s.07-1.23.07-1.59c0-.63-.24-1-.71-1a14.85,14.85,0,0,1-2.78-.48q-1.37-.36-3-.9a36.46,36.46,0,0,0-8.17-1.06,21,21,0,0,0-5.85.75,17.59,17.59,0,0,0-4.66,2.06,19.07,19.07,0,0,0-3.71,3.07,26.34,26.34,0,0,0-2.9,3.76,38.22,38.22,0,0,0-3.1,6.41,47.58,47.58,0,0,0-2,6.62,54.35,54.35,0,0,0-1,6.31c-.19,2-.29,3.76-.29,5.24q0,3.18.29,6.67a51,51,0,0,0,1,6.94,43.54,43.54,0,0,0,2.11,6.78,31.87,31.87,0,0,0,3.39,6.3,23.11,23.11,0,0,0,7.73,7.21A22.07,22.07,0,0,0,162.84,367Z" transform="translate(-137.48 -184.25)"/><path class="cls-2" d="M492.24,323.58V309.79c0-1.41,0-2.52.05-3.34s0-1.57,0-2.28a11.35,11.35,0,0,1,.71-3.55,3.21,3.21,0,0,1,2.4-1.53c.51-.07,1-.13,1.51-.16s.91-.06,1.23-.06.66-.21.66-.63-.44-.74-1.32-.74c-.63,0-1.45,0-2.45.05s-2,.05-2.92.05-1.79,0-2.55,0l-1.22.06-1.13-.06c-.63,0-1.42,0-2.36,0s-1.85,0-2.92-.05-2.07-.05-3-.05-1.32.24-1.32.74.22.74.66.74.86,0,1.46,0a9.79,9.79,0,0,1,1.36.16,3.21,3.21,0,0,1,2.64,1.49,10.22,10.22,0,0,1,.76,3.49c.06.71.11,1.47.14,2.28s0,1.93,0,3.34v29.69q0,6.57,0,11.66a66.28,66.28,0,0,1-.43,7.85,27.81,27.81,0,0,1-.61,3.23,2,2,0,0,1-1.55,1.54,6.47,6.47,0,0,1-1.28.32,8.61,8.61,0,0,1-1.27.1c-.44,0-.66.25-.66.74s.44.75,1.32.75c.69,0,1.45,0,2.26-.06s1.67-.08,2.55-.16,1.54-.1,2.16-.1h1.23c1.25,0,2.6,0,4.05,0l5,.16q5.74.31,14.42.32a25.15,25.15,0,0,0,2.64-.11,5.42,5.42,0,0,0,1.46-.32,1.43,1.43,0,0,0,.75-.68,5.65,5.65,0,0,0,.42-1.33,15.14,15.14,0,0,0,.47-2.38c.13-1,.26-1.88.38-2.76s.22-1.7.28-2.44.1-1.22.1-1.43q0-1.38-.57-1.38t-.84,1.17a12.22,12.22,0,0,1-.71,2.7,11.54,11.54,0,0,1-1.27,2.39,6,6,0,0,1-4.1,2.38,41.53,41.53,0,0,1-5.89.37,44.26,44.26,0,0,1-7.44-.47,6.21,6.21,0,0,1-3.58-1.65,4.6,4.6,0,0,1-.9-2,26.31,26.31,0,0,1-.52-3.77q-.18-2.39-.23-5.93t-.05-8.54V323.58Zm42.87,15.9q0,6.57-.05,11.66a66.7,66.7,0,0,1-.42,7.85,30,30,0,0,1-.62,3.28,1.82,1.82,0,0,1-1.55,1.49l-1.27.26a5.65,5.65,0,0,1-1.27.16c-.44,0-.66.25-.66.74s.44.75,1.32.75c.69,0,1.46,0,2.3-.06s1.68-.08,2.5-.16,1.67-.1,2.36-.1h3.76c1.14,0,2.58.07,4.34.21s3.74.14,6.12.21,5.15.11,8.29.11c.82,0,1.49,0,2-.05a3.89,3.89,0,0,0,1.27-.27,1.94,1.94,0,0,0,.8-.69,3.9,3.9,0,0,0,.52-1.32c.12-.5.25-1.19.38-2.07s.25-1.8.37-2.76.22-1.8.29-2.54.09-1.19.09-1.33a4.58,4.58,0,0,0-.09-1c-.07-.28-.22-.43-.48-.43s-.65.46-.84,1.38a9.73,9.73,0,0,1-1.28,4.08,6.65,6.65,0,0,1-2.49,2.18,11.12,11.12,0,0,1-4.15.85c-1.69.07-3.07.1-4.14.1a38.81,38.81,0,0,1-5-.26,6.53,6.53,0,0,1-3-1.06,3.83,3.83,0,0,1-1.46-2.23,17.5,17.5,0,0,1-.47-3.66V332c0-.42.18-.63.56-.63h2.26c1.13,0,2.36,0,3.68.05s2.6.09,3.86.16,2.17.14,2.73.21A6.25,6.25,0,0,1,559,332.8a3.14,3.14,0,0,1,1,1.7,6.1,6.1,0,0,1,.33,1.59c0,.49.05,1,.05,1.38s.19.84.56.84.52-.19.61-.58a4.47,4.47,0,0,0,.15-1.11q0-.54.09-2.49c.06-1.31.16-2.43.28-3.34a32.19,32.19,0,0,1,.43-3.4,10.23,10.23,0,0,0,.23-1.59c0-.49-.15-.74-.47-.74-.12,0-.53.39-1.22,1.17a2.76,2.76,0,0,1-1.6.9c-.63.1-1.45.23-2.45.37-.51.07-1.45.12-2.83.16s-2.86,0-4.43,0h-6.59c-.32,0-.47-.32-.47-.95V302.27c0-.64.15-1,.47-1h2.07q1.69,0,3.72.06l3.82.1a20.35,20.35,0,0,1,2.35.16,21.88,21.88,0,0,1,2.73.48,9,9,0,0,1,1.7.58,2.73,2.73,0,0,1,1,.74,3.55,3.55,0,0,1,.52,1,7.9,7.9,0,0,1,.37,1.75,12.7,12.7,0,0,1,.1,1.43c0,.78.22,1.16.66,1.16a.54.54,0,0,0,.47-.31,3.2,3.2,0,0,0,.28-.64,8.77,8.77,0,0,0,.14-1.27c0-.57.08-1.17.14-1.8s.11-1.22.14-1.75,0-.91,0-1.12a20,20,0,0,1,.43-2.81,6.35,6.35,0,0,0,.23-1.43c0-.56-.12-.85-.38-.85a1.23,1.23,0,0,0-.56.16,3.67,3.67,0,0,1-.57.27c-.31.07-.81.16-1.5.26s-1.45.2-2.26.27H539l-1.18-.06c-.66,0-1.46,0-2.4,0s-1.95,0-3-.05-2.08-.05-3-.05-1.32.24-1.32.74.22.74.66.74.87,0,1.46,0a10,10,0,0,1,1.37.16,3.23,3.23,0,0,1,2.64,1.49,10.5,10.5,0,0,1,.75,3.49c.06.71.11,1.47.14,2.28s.05,1.93.05,3.34v29.69Zm45,16.22a26.85,26.85,0,0,1-2.68,5.62,6,6,0,0,1-4.29,2.65,9.16,9.16,0,0,1-1.22.16c-.51,0-.92.05-1.23.05a.66.66,0,0,0-.75.74c0,.5.53.75,1.6.75.81,0,1.68,0,2.59-.06l2.54-.1,2.08-.11,1.17,0c.26,0,.68,0,1.28,0l2,.11,2.26.1c.76,0,1.38.06,1.89.06.81,0,1.22-.25,1.22-.75s-.28-.74-.85-.74H587a3.67,3.67,0,0,1-1.93-.53,2,2,0,0,1-.9-1.91,19.42,19.42,0,0,1,1.23-6l4.71-14.42c.19-.49.47-.74.85-.74H610.1a.86.86,0,0,1,.76.53l7.44,20.67c.31.78.33,1.35.05,1.7a3,3,0,0,1-.81.74,2.26,2.26,0,0,1-.42.27c-.09,0-.14.16-.14.37s.28.44.85.48,1.25.08,2.07.15c1.44.08,2.87.13,4.29.16s2.71.06,3.91.06H633a5,5,0,0,0,1.31-.16c.38-.11.57-.3.57-.59a.59.59,0,0,0-.33-.58,1.71,1.71,0,0,0-.71-.16,12.14,12.14,0,0,1-1.5-.1,9.09,9.09,0,0,1-1.79-.43,8.07,8.07,0,0,1-1.42-.63,6.68,6.68,0,0,1-1.65-1.49,17.93,17.93,0,0,1-1.88-2.86,36.4,36.4,0,0,1-2.12-4.88q-1.32-3.39-3.16-8.53t-3.91-10.87q-2.07-5.73-4.19-11.61T608.31,312q-1.78-4.94-3.06-8.43c-.85-2.33-1.4-3.82-1.65-4.45-.44-1-.77-1.79-1-2.39s-.55-.9-1-.9-.59.21-.85.64a19.38,19.38,0,0,0-1.13,2.86l-19.5,56.4Zm12-18.87c-.32,0-.41-.21-.29-.64l7.73-24.7q.66-2,1.41,0l8.2,24.7c.06.43,0,.64-.28.64Zm56.24-26q.95,1.17,3.06,3.71t5.05,6l6.35,7.52,7,8.33q3.3,3.81,7,8t6.79,7.74c2.07,2.37,3.85,4.35,5.32,5.94l2.5,2.7c1.13,1.2,2.05,2.16,2.78,2.86s1.32,1.26,1.79,1.65a9.06,9.06,0,0,0,1.08.79,1.39,1.39,0,0,0,.66.21.41.41,0,0,0,.33-.16,1.7,1.7,0,0,0,.19-.84c0-.46.06-1.12.09-2s0-2,0-3.49l.19-52.8c0-1.35,0-2.48.09-3.4a9.79,9.79,0,0,1,.38-2.27,2.89,2.89,0,0,1,2.45-2.18,4.77,4.77,0,0,1,1.22-.21h.76a.81.81,0,0,0,.7-.32,1,1,0,0,0,.24-.53c0-.42-.5-.63-1.51-.63-1.69,0-3.17,0-4.43.1s-2.13.11-2.63.11-1.61,0-3.3-.11-3.49-.1-5.37-.1c-1.07,0-1.6.21-1.6.63a2,2,0,0,0,.09.53c.06.21.25.32.57.32s.88,0,1.69.11,1.6.17,2.36.31a3.14,3.14,0,0,1,2.45,2.23,25.61,25.61,0,0,1,.66,6.15l.84,45.16c-.62-.7-1.61-1.87-3-3.49s-2.92-3.5-4.71-5.62-3.71-4.4-5.75-6.84-4.1-4.86-6.17-7.26q-4.82-5.52-9.33-10.82t-8.1-9.54l-5.94-7.05c-1.57-1.87-2.51-3-2.82-3.34l-1.56-1.75a2.4,2.4,0,0,0-1.65-1c-.31,0-.58.3-.8.9a12.9,12.9,0,0,0-.33,3.66v51.63c0,2,0,3.77-.09,5.15a24.63,24.63,0,0,1-.33,3.34,4.6,4.6,0,0,1-.71,1.9,2.19,2.19,0,0,1-1.22.85,9.13,9.13,0,0,1-1.93.43c-.66.07-1.15.1-1.46.1s-.66.25-.66.74.44.75,1.32.75c1.88,0,3.59-.06,5.13-.16s2.5-.16,2.87-.16,1.34,0,2.88.16,3.5.16,5.89.16q1.5,0,1.5-.75c0-.49-.22-.74-.66-.74s-1,0-1.79-.1a12.84,12.84,0,0,1-2.35-.43,2.89,2.89,0,0,1-1.42-.79,4.57,4.57,0,0,1-.94-1.8,16,16,0,0,1-.56-3.08c-.13-1.24-.22-2.77-.29-4.61l-.94-42.52Z" transform="translate(-137.48 -184.25)"/><path class="cls-2" d="M435.71,371.34q6.51,0,13.25-.61a38.31,38.31,0,0,0,10.83-2.3,6.75,6.75,0,0,0,2.19-1.38,7.68,7.68,0,0,0,1.14-2.45A124.89,124.89,0,0,0,466,350.27c.2-1.38.3-2.17.3-2.38a2.45,2.45,0,0,0-.12-.78,1.36,1.36,0,0,0-1.19-1.05c-.41,0-.81.3-1,.94-.65,2.09-1.11,4.12-1.92,6.18a16.46,16.46,0,0,1-3.48,5.59,17.62,17.62,0,0,1-9.17,5.06,64.38,64.38,0,0,1-12.79,1.07c-15.61,0-30.47-7-39.53-20a47.72,47.72,0,0,1-8.48-27.16c0-9.65,1.2-20.34,7-28.37,8.43-11.77,21.21-14.69,35-14.69,7.4,0,15.15,1.06,21.86,4.39a17.65,17.65,0,0,1,6.77,5.49,18.23,18.23,0,0,1,3.17,10.35c0,1.84.36,2.76,1.06,2.76.91,0,1.42-.92,1.52-2.76,0-6.1.16-12.33.75-18.39.1-1,.16-1.79.16-2.3,0-.92-.56-1.37-1.67-1.37a57.71,57.71,0,0,1-6.59-.7c-1.18-.19-2.43-.41-3.72-.65a123.47,123.47,0,0,0-22.7-2.18c-13.71,0-27.39,2.86-38.2,11.82-.83.69-1.65,1.38-2.39,2.12a51.29,51.29,0,0,0-15,35.55c0,13,3.7,25.56,12.67,35.18,12.45,13.36,29.86,17.38,47.45,17.38Z" transform="translate(-137.48 -184.25)"/><polygon class="cls-2" points="277.8 85.04 300.47 68.03 272.13 73.7 266.46 39.69 260.79 73.7 232.44 62.36 255.12 85.04 232.44 102.05 260.79 96.38 266.46 130.39 272.13 96.38 311.81 119.06 277.8 85.04 277.8 85.04"/></g></g></svg>